:SAMPLES-PER-SECOND 30
:FULLY-SPECIFIED
:DEGREES
293
root  7.367355617 39.0146661 1.435628932 -163.1309814 -72.8585968 156.0040283
lowerback  9.688110352 4.515940189 0.8735889792
upperback  4.573750019 5.908609867 0.9018329978
thorax  -0.666301012 2.882430077 -0.1485690027
lowerneck  -8.217920303 6.888360023 -1.757419944
upperneck  19.28809929 8.279899597 6.205190182
head  6.879439831 4.289750099 2.943300009
lclavicle  0 -9.442270133e-015 7.951389973e-016
lhumerus  13.69390011 -5.080689907 85.89050293
lradius  2.470070314e-031 -2.523409733e-031 134.3880005
lwrist  -1.412450015e-030 6.179468817e-031 42.45339966
lhand  -1.496451383e-031 -27.76390076 20.11240005
lfingers  90 7.125020027 -90
lthumb  89.89689403 5.08795885 91.16245106
rclavicle  0 -9.442270133e-015 7.951389973e-016
rhumerus  22.59309959 34.08380127 -83.89520264
rradius  -1.014115752e-031 3.382367999e-031 106.6900024
rwrist  3.531125038e-031 3.531125038e-031 -68.68499756
rhand  -7.920061211e-032 -33.2840004 9.303460121
rfingers  -90 -7.125020027 -90
rthumb  -92.93752616 -24.25625642 -97.11982154
rfemur  -7.159150124 13.72430038 -5.048560143
rtibia  -0 0 51.30369949
rfoot  -4.650981475e-032 -18.37260056 -4.400189877
rtoes  5.373923086 19.29304026 -105.8922705
lfemur  -20.61739922 -0.5425950289 -3.203229904
ltibia  -0 0 50.47320175
lfoot  -0 2.299360037 -8.153450012
ltoes  -4.250644065 -19.5611806 -102.515957
294
root  7.370710748 39.03955475 1.511088882 -163.0670166 -72.99710083 156.0130005
lowerback  9.657059669 4.385379791 0.8320729733
upperback  4.331970215 5.746749878 0.8748109937
thorax  -0.9027630091 2.804430008 -0.1472759992
lowerneck  -8.314840317 6.946090221 -1.628849983
upperneck  19.0760994 8.335240364 6.299739838
head  6.827700138 4.338029861 2.953609943
lclavicle  0 -9.442270133e-015 7.951389973e-016
lhumerus  13.51809978 -5.733860016 85.79270172
lradius  2.468131467e-031 -2.52530614e-031 134.3439941
lwrist  -7.062250077e-031 5.296687558e-031 42.21929932
lhand  -1.496451383e-031 -27.76390076 20.11240005
lfingers  90 7.125020027 -90
lthumb  89.89689403 5.08795885 91.16245106
rclavicle  0 -9.442270133e-015 7.951389973e-016
rhumerus  23.7343998 34.38980103 -83.22530365
rradius  -1.002952754e-031 3.385694878e-031 106.5009995
rwrist  7.062250077e-031 -0 -68.78540039
rhand  -7.920061211e-032 -33.2840004 9.303460121
rfingers  -90 -7.125020027 -90
rthumb  -92.93752616 -24.25625642 -97.11982154
rfemur  -7.431739807 13.86079979 -4.996399879
rtibia  -0 0 52.17950058
rfoot  -4.656342616e-032 -18.57019997 -3.991039991
rtoes  5.373923086 19.29304026 -105.8922705
lfemur  -20.96339989 -0.9894869924 -3.238590002
ltibia  -0 0 51.65790176
lfoot  -0 1.219439983 -7.804160118
ltoes  -4.250644065 -19.5611806 -102.515957
295
root  7.3777777 39.0315559 1.581873293 -163.2750244 -73.15619659 156.1370239
lowerback  9.825550079 4.259109974 0.8999080062
upperback  4.10379982 5.597809792 0.8084620237
thorax  -1.219099998 2.732249975 -0.2620109916
lowerneck  -8.399459839 7.030399799 -1.249160051
upperneck  18.99749947 8.40585041 6.246850014
head  6.836030006 4.395780087 2.883409977
lclavicle  0 -9.442270133e-015 7.951389973e-016
lhumerus  13.23270035 -6.501319885 85.69599915
lradius  2.465132937e-031 -2.528233304e-031 134.276001
lwrist  -7.062250077e-031 5.296687558e-031 41.82989883
lhand  -1.496451383e-031 -27.76390076 20.11240005
lfingers  90 7.125020027 -90
lthumb  89.89689403 5.08795885 91.16245106
rclavicle  0 -9.442270133e-015 7.951389973e-016
rhumerus  24.73570061 34.50880051 -82.74690247
rradius  -9.911876634e-032 3.389157868e-031 106.302002
rwrist  7.062250077e-031 7.062250077e-031 -68.92050171
rhand  -7.920061211e-032 -33.2840004 9.303460121
rfingers  -90 -7.125020027 -90
rthumb  -92.93752616 -24.25625642 -97.11982154
rfemur  -7.623109818 13.92599964 -4.856969833
rtibia  -0 0 53.34140015
rfoot  -4.658433651e-032 -18.64660072 -3.878959894
rtoes  5.373923086 19.29304026 -105.8922705
lfemur  -21.16749954 -1.402670026 -3.253639936
ltibia  -0 0 53.02000046
lfoot  -0 0.3843069971 -7.445370197
ltoes  -4.250644065 -19.5611806 -102.515957
296
root  7.389200015 38.99266701 1.653486725 -163.8300171 -73.26580048 156.4760132
lowerback  10.11159992 4.178450108 0.9696419835
upperback  3.936180115 5.507649899 0.8281779885
thorax  -1.545230031 2.686300039 -0.3011110127
lowerneck  -8.421039581 7.090310097 -0.9432860017
upperneck  18.91670036 8.465149879 6.136650085
head  6.832399845 4.437240124 2.803119898
lclavicle  0 -9.442270133e-015 7.951389973e-016
lhumerus  12.82940006 -7.247469902 85.71520233
lradius  2.461644873e-031 -2.531629624e-031 134.1970062
lwrist  -7.062250077e-031 4.413906298e-031 41.41040039
lhand  -1.496451383e-031 -27.76390076 20.11240005
lfingers  90 7.125020027 -90
lthumb  89.89689403 5.08795885 91.16245106
rclavicle  0 -9.442270133e-015 7.951389973e-016
rhumerus  25.56959915 34.55469894 -82.31999969
rradius  -9.818376144e-032 3.391878379e-031 106.1439972
rwrist  3.531125038e-031 3.531125038e-031 -68.91680145
rhand  -7.920061211e-032 -33.2840004 9.303460121
rfingers  -90 -7.125020027 -90
rthumb  -92.93752616 -24.25625642 -97.11982154
rfemur  -7.76500988 13.99190044 -4.626369953
rtibia  -0 0 54.72169876
rfoot  -4.652591347e-032 -18.43219948 -3.726629972
rtoes  5.373923086 19.29304026 -105.8922705
lfemur  -21.22489929 -1.705360055 -3.270450115
ltibia  -0 0 54.42039871
lfoot  8.827962491e-032 -0.3338890076 -7.129700184
ltoes  -4.250644065 -19.5611806 -102.515957
297
root  7.393888789 38.93777742 1.729519912 -164.5349731 -73.354599 156.9530029
lowerback  10.29319954 4.091760159 0.9456689954
upperback  3.858599901 5.398240089 0.9795060158
thorax  -1.742949963 2.628989935 -0.1382859945
lowerneck  -8.474570274 7.141930103 -0.8699830174
upperneck  18.73139954 8.542090416 6.109960079
head  6.784379959 4.480500221 2.784670115
lclavicle  0 -9.442270133e-015 7.951389973e-016
lhumerus  12.30510044 -7.919400215 86.04309845
lradius  2.457576192e-031 -2.53557948e-031 134.1049957
lwrist  -7.062250077e-031 5.296687558e-031 40.7276001
lhand  -1.496451383e-031 -27.76390076 20.11240005
lfingers  90 7.125020027 -90
lthumb  89.89689403 5.08795885 91.16245106
rclavicle  0 -9.442270133e-015 7.951389973e-016
rhumerus  26.47730064 34.80070114 -81.68509674
rradius  -9.728950409e-032 3.394454194e-031 105.9929962
rwrist  3.531125038e-031 7.062250077e-031 -68.84279633
rhand  -7.920061211e-032 -33.2840004 9.303460121
rfingers  -90 -7.125020027 -90
rthumb  -92.93752616 -24.25625642 -97.11982154
rfemur  -7.940649986 14.01329994 -4.37018013
rtibia  -0 0 56.22790146
rfoot  -4.642376477e-032 -18.05010033 -3.157040119
rtoes  5.373923086 19.29304026 -105.8922705
lfemur  -21.23069954 -2.018480062 -3.284539938
ltibia  -0 0 55.71609879
lfoot  8.828378252e-032 -0.6485980153 -6.678589821
ltoes  -4.250644065 -19.5611806 -102.515957
298
root  7.392000213 38.85844373 1.804637721 -165.2420044 -73.4355011 157.3720093
lowerback  10.48999977 3.997100115 0.8224570155
upperback  3.810859919 5.267409801 1.15139997
thorax  -1.928390026 2.560120106 0.1042449996
lowerneck  -8.561289787 7.218570232 -0.6933559775
upperneck  18.57839966 8.633859634 6.084750175
head  6.757380009 4.537859917 2.754430056
lclavicle  0 -9.442270133e-015 7.951389973e-016
lhumerus  11.65979958 -8.57063961 86.4414978
lradius  2.45381226e-031 -2.53922221e-031 134.0200043
lwrist  -7.062250077e-031 8.827812596e-032 40.01879883
lhand  -1.496451383e-031 -27.76390076 20.11240005
lfingers  90 7.125020027 -90
lthumb  89.89689403 5.08795885 91.16245106
rclavicle  0 -9.442270133e-015 7.951389973e-016
rhumerus  27.27499962 35.02629852 -81.13150024
rradius  -9.673843471e-032 3.396028793e-031 105.9000015
rwrist  3.531125038e-031 7.062250077e-031 -68.71499634
rhand  -7.920061211e-032 -33.2840004 9.303460121
rfingers  -90 -7.125020027 -90
rthumb  -92.93752616 -24.25625642 -97.11982154
rfemur  -8.088709831 13.90019989 -4.174769878
rtibia  -0 0 57.79029846
rfoot  -4.63124188e-032 -17.62249947 -2.133130074
rtoes  5.373923086 19.29304026 -105.8922705
lfemur  -21.0522995 -2.306740046 -3.340189934
ltibia  -0 0 56.74349976
lfoot  4.414028509e-032 -0.4263589978 -6.318590164
ltoes  -4.250644065 -19.5611806 -102.515957
